<mxfile host="app.diagrams.net" modified="2023-09-04T16:42:17.560Z" agent="Mozilla/5.0 (Macintosh; Intel Mac OS X 10_15_7) AppleWebKit/537.36 (KHTML, like Gecko) Chrome/116.0.0.0 Safari/537.36" etag="cHFXihNtJ6fq_7Xxei4F" version="21.6.5" type="github">
  <diagram name="Page-1" id="0Vc0pZO1-iffybWoa11N">
    <mxGraphModel dx="1468" dy="900" grid="1" gridSize="10" guides="1" tooltips="1" connect="1" arrows="1" fold="1" page="1" pageScale="1" pageWidth="1600" pageHeight="1200" math="0" shadow="0">
      <root>
        <mxCell id="0" />
        <mxCell id="1" parent="0" />
        <mxCell id="Cdjt4gM95UI_-sG7JQJn-1" value="Web App UI" style="outlineConnect=0;dashed=0;verticalLabelPosition=bottom;verticalAlign=top;align=center;html=1;shape=mxgraph.aws3.cloudformation;fillColor=#759C3E;gradientColor=none;" vertex="1" parent="1">
          <mxGeometry x="440" y="467" width="76.5" height="93" as="geometry" />
        </mxCell>
        <mxCell id="Cdjt4gM95UI_-sG7JQJn-2" value="Load Balancer" style="outlineConnect=0;dashed=0;verticalLabelPosition=bottom;verticalAlign=top;align=center;html=1;shape=mxgraph.aws3.classic_load_balancer;fillColor=#F58534;gradientColor=none;" vertex="1" parent="1">
          <mxGeometry x="530" y="600" width="69" height="72" as="geometry" />
        </mxCell>
        <mxCell id="Cdjt4gM95UI_-sG7JQJn-4" value="Proxy" style="verticalLabelPosition=bottom;sketch=0;aspect=fixed;html=1;verticalAlign=top;strokeColor=none;align=center;outlineConnect=0;shape=mxgraph.citrix.proxy_server;" vertex="1" parent="1">
          <mxGeometry x="620" y="470" width="76.5" height="90" as="geometry" />
        </mxCell>
        <mxCell id="Cdjt4gM95UI_-sG7JQJn-6" value="Management Service" style="html=1;whiteSpace=wrap;strokeColor=none;fillColor=#0079D6;labelPosition=center;verticalLabelPosition=middle;verticalAlign=top;align=center;fontSize=12;outlineConnect=0;spacingTop=-6;fontColor=#FFFFFF;sketch=0;shape=mxgraph.sitemap.services;" vertex="1" parent="1">
          <mxGeometry x="800" y="280" width="120" height="70" as="geometry" />
        </mxCell>
        <mxCell id="Cdjt4gM95UI_-sG7JQJn-7" value="Head Service" style="html=1;whiteSpace=wrap;strokeColor=none;fillColor=#0079D6;labelPosition=center;verticalLabelPosition=middle;verticalAlign=top;align=center;fontSize=12;outlineConnect=0;spacingTop=-6;fontColor=#FFFFFF;sketch=0;shape=mxgraph.sitemap.services;" vertex="1" parent="1">
          <mxGeometry x="800" y="400" width="120" height="70" as="geometry" />
        </mxCell>
        <mxCell id="Cdjt4gM95UI_-sG7JQJn-8" value="Member Service" style="html=1;whiteSpace=wrap;strokeColor=none;fillColor=#0079D6;labelPosition=center;verticalLabelPosition=middle;verticalAlign=top;align=center;fontSize=12;outlineConnect=0;spacingTop=-6;fontColor=#FFFFFF;sketch=0;shape=mxgraph.sitemap.services;" vertex="1" parent="1">
          <mxGeometry x="800" y="520" width="120" height="70" as="geometry" />
        </mxCell>
        <mxCell id="Cdjt4gM95UI_-sG7JQJn-9" value="Voting Service" style="html=1;whiteSpace=wrap;strokeColor=none;fillColor=#0079D6;labelPosition=center;verticalLabelPosition=middle;verticalAlign=top;align=center;fontSize=12;outlineConnect=0;spacingTop=-6;fontColor=#FFFFFF;sketch=0;shape=mxgraph.sitemap.services;" vertex="1" parent="1">
          <mxGeometry x="799" y="759" width="120" height="70" as="geometry" />
        </mxCell>
        <mxCell id="Cdjt4gM95UI_-sG7JQJn-10" value="Networking Service" style="html=1;whiteSpace=wrap;strokeColor=none;fillColor=#0079D6;labelPosition=center;verticalLabelPosition=middle;verticalAlign=top;align=center;fontSize=12;outlineConnect=0;spacingTop=-6;fontColor=#FFFFFF;sketch=0;shape=mxgraph.sitemap.services;" vertex="1" parent="1">
          <mxGeometry x="800" y="640" width="120" height="70" as="geometry" />
        </mxCell>
        <mxCell id="Cdjt4gM95UI_-sG7JQJn-11" value="Assets Service" style="html=1;whiteSpace=wrap;strokeColor=none;fillColor=#0079D6;labelPosition=center;verticalLabelPosition=middle;verticalAlign=top;align=center;fontSize=12;outlineConnect=0;spacingTop=-6;fontColor=#FFFFFF;sketch=0;shape=mxgraph.sitemap.services;" vertex="1" parent="1">
          <mxGeometry x="799" y="879" width="120" height="70" as="geometry" />
        </mxCell>
        <mxCell id="Cdjt4gM95UI_-sG7JQJn-20" value="Database" style="image;html=1;image=img/lib/clip_art/computers/Database_128x128.png" vertex="1" parent="1">
          <mxGeometry x="1117" y="630" width="80" height="80" as="geometry" />
        </mxCell>
        <mxCell id="Cdjt4gM95UI_-sG7JQJn-27" value="" style="endArrow=classic;startArrow=classic;html=1;rounded=0;entryX=0;entryY=0.5;entryDx=0;entryDy=0;" edge="1" parent="1" source="Cdjt4gM95UI_-sG7JQJn-19" target="Cdjt4gM95UI_-sG7JQJn-20">
          <mxGeometry width="50" height="50" relative="1" as="geometry">
            <mxPoint x="1061" y="379" as="sourcePoint" />
            <mxPoint x="1037" y="459" as="targetPoint" />
          </mxGeometry>
        </mxCell>
        <mxCell id="Cdjt4gM95UI_-sG7JQJn-29" value="" style="rounded=0;whiteSpace=wrap;html=1;fillColor=none;strokeColor=#6c8ebf;" vertex="1" parent="1">
          <mxGeometry x="789" y="268" width="140" height="690" as="geometry" />
        </mxCell>
        <mxCell id="Cdjt4gM95UI_-sG7JQJn-30" value="" style="endArrow=classic;startArrow=classic;html=1;rounded=0;entryX=-0.053;entryY=0.476;entryDx=0;entryDy=0;entryPerimeter=0;exitX=0.98;exitY=0.584;exitDx=0;exitDy=0;exitPerimeter=0;" edge="1" parent="1" source="Cdjt4gM95UI_-sG7JQJn-29" target="Cdjt4gM95UI_-sG7JQJn-19">
          <mxGeometry width="50" height="50" relative="1" as="geometry">
            <mxPoint x="870" y="630" as="sourcePoint" />
            <mxPoint x="920" y="580" as="targetPoint" />
          </mxGeometry>
        </mxCell>
        <mxCell id="Cdjt4gM95UI_-sG7JQJn-54" style="edgeStyle=orthogonalEdgeStyle;rounded=0;orthogonalLoop=1;jettySize=auto;html=1;" edge="1" parent="1" source="Cdjt4gM95UI_-sG7JQJn-40" target="Cdjt4gM95UI_-sG7JQJn-53">
          <mxGeometry relative="1" as="geometry" />
        </mxCell>
        <mxCell id="Cdjt4gM95UI_-sG7JQJn-40" value="Log" style="html=1;whiteSpace=wrap;strokeColor=none;fillColor=#0079D6;labelPosition=center;verticalLabelPosition=middle;verticalAlign=top;align=center;fontSize=12;outlineConnect=0;spacingTop=-6;fontColor=#FFFFFF;sketch=0;shape=mxgraph.sitemap.log;" vertex="1" parent="1">
          <mxGeometry x="1000" y="360" width="120" height="70" as="geometry" />
        </mxCell>
        <mxCell id="Cdjt4gM95UI_-sG7JQJn-42" value="" style="endArrow=classic;html=1;rounded=0;entryX=0;entryY=0.5;entryDx=0;entryDy=0;entryPerimeter=0;exitX=1;exitY=0.25;exitDx=0;exitDy=0;" edge="1" parent="1" source="Cdjt4gM95UI_-sG7JQJn-29" target="Cdjt4gM95UI_-sG7JQJn-40">
          <mxGeometry width="50" height="50" relative="1" as="geometry">
            <mxPoint x="630" y="710" as="sourcePoint" />
            <mxPoint x="680" y="660" as="targetPoint" />
          </mxGeometry>
        </mxCell>
        <mxCell id="Cdjt4gM95UI_-sG7JQJn-59" style="edgeStyle=orthogonalEdgeStyle;rounded=0;orthogonalLoop=1;jettySize=auto;html=1;entryX=0.5;entryY=0;entryDx=0;entryDy=0;" edge="1" parent="1" source="Cdjt4gM95UI_-sG7JQJn-44" target="Cdjt4gM95UI_-sG7JQJn-20">
          <mxGeometry relative="1" as="geometry" />
        </mxCell>
        <mxCell id="Cdjt4gM95UI_-sG7JQJn-44" value="File storage" style="sketch=0;points=[[0,0,0],[0.25,0,0],[0.5,0,0],[0.75,0,0],[1,0,0],[0,1,0],[0.25,1,0],[0.5,1,0],[0.75,1,0],[1,1,0],[0,0.25,0],[0,0.5,0],[0,0.75,0],[1,0.25,0],[1,0.5,0],[1,0.75,0]];outlineConnect=0;fontColor=#232F3E;gradientColor=#60A337;gradientDirection=north;fillColor=#277116;strokeColor=#ffffff;dashed=0;verticalLabelPosition=bottom;verticalAlign=top;align=center;html=1;fontSize=12;fontStyle=0;aspect=fixed;shape=mxgraph.aws4.resourceIcon;resIcon=mxgraph.aws4.file_cache;" vertex="1" parent="1">
          <mxGeometry x="1000" y="501.5" width="78" height="78" as="geometry" />
        </mxCell>
        <mxCell id="Cdjt4gM95UI_-sG7JQJn-19" value="Caching" style="image;sketch=0;aspect=fixed;html=1;points=[];align=center;fontSize=12;image=img/lib/mscae/Cache_Redis_Product.svg;" vertex="1" parent="1">
          <mxGeometry x="1000" y="649" width="50" height="42" as="geometry" />
        </mxCell>
        <mxCell id="Cdjt4gM95UI_-sG7JQJn-46" value="" style="endArrow=classic;startArrow=classic;html=1;rounded=0;entryX=0;entryY=0.5;entryDx=0;entryDy=0;entryPerimeter=0;exitX=0.989;exitY=0.393;exitDx=0;exitDy=0;exitPerimeter=0;" edge="1" parent="1" source="Cdjt4gM95UI_-sG7JQJn-29" target="Cdjt4gM95UI_-sG7JQJn-44">
          <mxGeometry width="50" height="50" relative="1" as="geometry">
            <mxPoint x="540" y="690" as="sourcePoint" />
            <mxPoint x="590" y="640" as="targetPoint" />
          </mxGeometry>
        </mxCell>
        <mxCell id="Cdjt4gM95UI_-sG7JQJn-50" value="" style="endArrow=classic;startArrow=classic;html=1;rounded=0;entryX=0.5;entryY=0;entryDx=0;entryDy=0;entryPerimeter=0;" edge="1" parent="1" source="Cdjt4gM95UI_-sG7JQJn-4" target="Cdjt4gM95UI_-sG7JQJn-2">
          <mxGeometry width="50" height="50" relative="1" as="geometry">
            <mxPoint x="720" y="670.5" as="sourcePoint" />
            <mxPoint x="770" y="620.5" as="targetPoint" />
          </mxGeometry>
        </mxCell>
        <mxCell id="Cdjt4gM95UI_-sG7JQJn-51" value="" style="endArrow=classic;startArrow=classic;html=1;rounded=0;exitX=1;exitY=0.5;exitDx=0;exitDy=0;exitPerimeter=0;" edge="1" parent="1" source="Cdjt4gM95UI_-sG7JQJn-1" target="Cdjt4gM95UI_-sG7JQJn-4">
          <mxGeometry width="50" height="50" relative="1" as="geometry">
            <mxPoint x="266.5" y="624" as="sourcePoint" />
            <mxPoint x="380" y="622.8780889621087" as="targetPoint" />
          </mxGeometry>
        </mxCell>
        <mxCell id="Cdjt4gM95UI_-sG7JQJn-53" value="Analysis" style="image;aspect=fixed;html=1;points=[];align=center;fontSize=12;image=img/lib/azure2/analytics/Analysis_Services.svg;" vertex="1" parent="1">
          <mxGeometry x="1200" y="371" width="63" height="48" as="geometry" />
        </mxCell>
        <mxCell id="Cdjt4gM95UI_-sG7JQJn-57" value="Monitor&lt;br&gt;" style="sketch=0;aspect=fixed;pointerEvents=1;shadow=0;dashed=0;html=1;strokeColor=none;labelPosition=center;verticalLabelPosition=bottom;verticalAlign=top;align=center;fillColor=#00188D;shape=mxgraph.mscae.enterprise.performance_monitor" vertex="1" parent="1">
          <mxGeometry x="1320" y="377" width="50" height="36" as="geometry" />
        </mxCell>
        <mxCell id="Cdjt4gM95UI_-sG7JQJn-58" value="" style="endArrow=classic;html=1;rounded=0;entryX=0;entryY=0.5;entryDx=0;entryDy=0;entryPerimeter=0;" edge="1" parent="1" source="Cdjt4gM95UI_-sG7JQJn-53" target="Cdjt4gM95UI_-sG7JQJn-57">
          <mxGeometry width="50" height="50" relative="1" as="geometry">
            <mxPoint x="1031.5" y="602" as="sourcePoint" />
            <mxPoint x="1081.5" y="552" as="targetPoint" />
          </mxGeometry>
        </mxCell>
        <mxCell id="Cdjt4gM95UI_-sG7JQJn-60" value="Security" style="sketch=0;html=1;dashed=0;whitespace=wrap;fillColor=#2875E2;strokeColor=#ffffff;points=[[0.005,0.63,0],[0.1,0.2,0],[0.9,0.2,0],[0.5,0,0],[0.995,0.63,0],[0.72,0.99,0],[0.5,1,0],[0.28,0.99,0]];verticalLabelPosition=bottom;align=center;verticalAlign=top;shape=mxgraph.kubernetes.icon;prIcon=secret" vertex="1" parent="1">
          <mxGeometry x="1002" y="832" width="50" height="48" as="geometry" />
        </mxCell>
        <mxCell id="Cdjt4gM95UI_-sG7JQJn-61" value="Gateway" style="outlineConnect=0;dashed=0;verticalLabelPosition=bottom;verticalAlign=top;align=center;html=1;shape=mxgraph.aws3.vpn_gateway;fillColor=#F58536;gradientColor=none;" vertex="1" parent="1">
          <mxGeometry x="1122.5" y="820" width="69" height="72" as="geometry" />
        </mxCell>
        <mxCell id="Cdjt4gM95UI_-sG7JQJn-62" value="" style="endArrow=classic;startArrow=classic;html=1;rounded=0;entryX=0.061;entryY=0.441;entryDx=0;entryDy=0;entryPerimeter=0;exitX=1;exitY=0.5;exitDx=0;exitDy=0;exitPerimeter=0;" edge="1" parent="1" source="Cdjt4gM95UI_-sG7JQJn-9" target="Cdjt4gM95UI_-sG7JQJn-60">
          <mxGeometry width="50" height="50" relative="1" as="geometry">
            <mxPoint x="850" y="670" as="sourcePoint" />
            <mxPoint x="900" y="620" as="targetPoint" />
          </mxGeometry>
        </mxCell>
        <mxCell id="Cdjt4gM95UI_-sG7JQJn-63" value="" style="endArrow=classic;startArrow=classic;html=1;rounded=0;entryX=0.005;entryY=0.63;entryDx=0;entryDy=0;entryPerimeter=0;exitX=1;exitY=0.5;exitDx=0;exitDy=0;exitPerimeter=0;" edge="1" parent="1" source="Cdjt4gM95UI_-sG7JQJn-11" target="Cdjt4gM95UI_-sG7JQJn-60">
          <mxGeometry width="50" height="50" relative="1" as="geometry">
            <mxPoint x="850" y="830" as="sourcePoint" />
            <mxPoint x="900" y="780" as="targetPoint" />
          </mxGeometry>
        </mxCell>
        <mxCell id="Cdjt4gM95UI_-sG7JQJn-64" value="" style="endArrow=classic;startArrow=classic;html=1;rounded=0;entryX=0;entryY=0.5;entryDx=0;entryDy=0;entryPerimeter=0;exitX=0.955;exitY=0.466;exitDx=0;exitDy=0;exitPerimeter=0;" edge="1" parent="1" source="Cdjt4gM95UI_-sG7JQJn-60" target="Cdjt4gM95UI_-sG7JQJn-61">
          <mxGeometry width="50" height="50" relative="1" as="geometry">
            <mxPoint x="850" y="830" as="sourcePoint" />
            <mxPoint x="900" y="780" as="targetPoint" />
          </mxGeometry>
        </mxCell>
        <mxCell id="Cdjt4gM95UI_-sG7JQJn-65" value="Authentication" style="outlineConnect=0;dashed=0;verticalLabelPosition=bottom;verticalAlign=top;align=center;html=1;shape=mxgraph.aws3.add_on;fillColor=#759C3E;gradientColor=none;" vertex="1" parent="1">
          <mxGeometry x="670" y="622.5" width="49.5" height="27" as="geometry" />
        </mxCell>
        <mxCell id="Cdjt4gM95UI_-sG7JQJn-66" value="" style="endArrow=classic;startArrow=classic;html=1;rounded=0;entryX=0;entryY=0.5;entryDx=0;entryDy=0;entryPerimeter=0;" edge="1" parent="1" source="Cdjt4gM95UI_-sG7JQJn-2" target="Cdjt4gM95UI_-sG7JQJn-65">
          <mxGeometry width="50" height="50" relative="1" as="geometry">
            <mxPoint x="540" y="760" as="sourcePoint" />
            <mxPoint x="590" y="710" as="targetPoint" />
          </mxGeometry>
        </mxCell>
        <mxCell id="Cdjt4gM95UI_-sG7JQJn-67" value="" style="endArrow=classic;startArrow=classic;html=1;rounded=0;entryX=0.001;entryY=0.531;entryDx=0;entryDy=0;exitX=1;exitY=0.5;exitDx=0;exitDy=0;exitPerimeter=0;entryPerimeter=0;" edge="1" parent="1" source="Cdjt4gM95UI_-sG7JQJn-65" target="Cdjt4gM95UI_-sG7JQJn-29">
          <mxGeometry width="50" height="50" relative="1" as="geometry">
            <mxPoint x="540" y="760" as="sourcePoint" />
            <mxPoint x="590" y="710" as="targetPoint" />
          </mxGeometry>
        </mxCell>
      </root>
    </mxGraphModel>
  </diagram>
</mxfile>
